<svg width="26" height="30" viewBox="0 0 26 30" fill="none" xmlns="http://www.w3.org/2000/svg">
<path fill-rule="evenodd" clip-rule="evenodd" d="M2.20039 4.20001C2.20039 2.21178 3.81217 0.600006 5.80039 0.600006H20.2004C22.1886 0.600006 23.8004 2.21178 23.8004 4.20001V25.8C24.7945 25.8 25.6004 26.6059 25.6004 27.6C25.6004 28.5941 24.7945 29.4 23.8004 29.4H17.6004C17.0481 29.4 16.6004 28.9523 16.6004 28.4V24C16.6004 23.0059 15.7945 22.2 14.8004 22.2H11.2004C10.2063 22.2 9.40039 23.0059 9.40039 24V28.4C9.40039 28.9523 8.95268 29.4 8.40039 29.4H2.20039C1.20628 29.4 0.400391 28.5941 0.400391 27.6C0.400391 26.6059 1.20628 25.8 2.20039 25.8V4.20001ZM7.60039 6.00001H11.2004V9.60001H7.60039V6.00001ZM11.2004 13.2H7.60039V16.8H11.2004V13.2ZM14.8004 6.00001H18.4004V9.60001H14.8004V6.00001ZM18.4004 13.2H14.8004V16.8H18.4004V13.2Z" fill="white"/>
</svg>
