<svg width="36" height="32" viewBox="0 0 36 32" fill="none" xmlns="http://www.w3.org/2000/svg">
<path fill-rule="evenodd" clip-rule="evenodd" d="M32.0313 0.299927H4.61881C2.5161 0.299927 0.811523 1.94153 0.811523 3.96655V20.0997C0.811523 21.0722 1.21265 22.0048 1.92665 22.6924C2.64066 23.38 3.60905 23.7663 4.61881 23.7663H11.8679L17.7311 30.8246C17.8756 30.9986 18.0944 31.0999 18.3258 31.0999C18.5572 31.0999 18.776 30.9986 18.9205 30.8246L24.7822 23.7663H32.0313C34.134 23.7663 35.8386 22.1247 35.8386 20.0997V3.96655C35.8386 1.94153 34.134 0.299927 32.0313 0.299927ZM19.9303 15.6999H9.7141C9.31109 15.6999 8.98438 15.4537 8.98438 15.1499C8.98438 14.8462 9.31109 14.5999 9.7141 14.5999H19.9303C20.3333 14.5999 20.66 14.8462 20.66 15.1499C20.66 15.4537 20.3333 15.6999 19.9303 15.6999ZM9.74778 9.09993H28.0696C28.4912 9.09993 28.833 8.85368 28.833 8.54993C28.833 8.24617 28.4912 7.99993 28.0696 7.99993H9.74778C9.32617 7.99993 8.98438 8.24617 8.98438 8.54993C8.98438 8.85368 9.32617 9.09993 9.74778 9.09993Z" fill="#F04037"/>
</svg>
