<svg width="24" height="24" viewBox="0 0 24 24" fill="none" xmlns="http://www.w3.org/2000/svg">
<path d="M16.189 1.99999H7.80902C4.16902 1.99999 1.99902 4.16999 1.99902 7.80999V16.18C1.99902 19.83 4.16902 22 7.80902 22H16.179C19.819 22 21.989 19.83 21.989 16.19V7.80999C21.999 4.16999 19.829 1.99999 16.189 1.99999ZM9.93902 13.27C9.25902 14.29 8.31902 15.12 7.21902 15.67C7.11902 15.72 6.99902 15.75 6.88902 15.75C6.60902 15.75 6.34902 15.6 6.21902 15.34C6.02902 14.97 6.17902 14.52 6.55902 14.33C7.42902 13.9 8.16902 13.24 8.69902 12.44C8.87902 12.17 8.87902 11.83 8.69902 11.56C8.15902 10.76 7.41902 10.1 6.55902 9.66999C6.17902 9.48999 6.02902 9.03999 6.21902 8.65999C6.39902 8.28999 6.84902 8.13999 7.21902 8.32999C8.31902 8.87999 9.25902 9.70999 9.93902 10.73C10.459 11.5 10.459 12.5 9.93902 13.27ZM16.999 15.75H12.999C12.589 15.75 12.249 15.41 12.249 15C12.249 14.59 12.589 14.25 12.999 14.25H16.999C17.409 14.25 17.749 14.59 17.749 15C17.749 15.41 17.409 15.75 16.999 15.75Z" fill="#236BFE"/>
</svg>
