<svg width="29" height="31" viewBox="0 0 29 31" fill="none" xmlns="http://www.w3.org/2000/svg">
<path d="M10.9791 17.7H0.677039C0.297923 17.7 -0.00976562 17.3967 -0.00976562 17.0231V0.776899C-0.00976562 0.403237 0.297923 0.0999756 0.677039 0.0999756H10.9791C11.3582 0.0999756 11.6659 0.403237 11.6659 0.776899V17.0231C11.6659 17.3967 11.3582 17.7 10.9791 17.7Z" fill="#F04037"/>
<path d="M10.9791 30.9H0.677039C0.297923 30.9 -0.00976562 30.5832 -0.00976562 30.1929V21.7071C-0.00976562 21.3168 0.297923 21 0.677039 21H10.9791C11.3582 21 11.6659 21.3168 11.6659 21.7071V30.1929C11.6659 30.5832 11.3582 30.9 10.9791 30.9Z" fill="#F04037"/>
<path d="M27.3248 9.99998H17.0227C16.6436 9.99998 16.3359 9.68317 16.3359 9.29283V0.807118C16.3359 0.416776 16.6436 0.0999756 17.0227 0.0999756H27.3248C27.7039 0.0999756 28.0116 0.416776 28.0116 0.807118V9.29283C28.0116 9.68317 27.7039 9.99998 27.3248 9.99998Z" fill="#F04037"/>
<path d="M27.3248 30.8999H17.0227C16.6436 30.8999 16.3359 30.5967 16.3359 30.223V13.9768C16.3359 13.6032 16.6436 13.2999 17.0227 13.2999H27.3248C27.7039 13.2999 28.0116 13.6032 28.0116 13.9768V30.223C28.0116 30.5967 27.7039 30.8999 27.3248 30.8999Z" fill="#F04037"/>
</svg>
