<svg width="41" height="19" viewBox="0 0 41 19" fill="none" xmlns="http://www.w3.org/2000/svg">
<path d="M32.7586 3.91444C29.9349 3.91444 25.2282 7.12162 20.2461 10.5176C15.8717 13.4995 10.913 16.8793 8.59499 16.8793C5.26473 16.8793 2.55409 14.3341 2.55409 11.2072C2.55409 8.08021 5.26473 5.53505 8.59499 5.53505C9.17836 5.53505 9.96799 5.7433 10.9147 6.12495L8.74342 9.85315C8.58118 10.1303 8.60707 10.4706 8.80728 10.7242C8.97125 10.9333 9.23014 11.0516 9.50026 11.0516C9.55808 11.0516 9.61849 11.0459 9.67717 11.0346L17.4009 9.5185C17.646 9.46988 17.8574 9.32484 17.9791 9.11821C18.1008 8.91158 18.1206 8.66606 18.0335 8.44566L15.2779 1.43005C15.1606 1.13186 14.8689 0.925231 14.5315 0.902542C14.2001 0.876613 13.873 1.04354 13.7116 1.32228L11.7432 4.70287C10.4944 4.1867 9.43553 3.91444 8.59499 3.91444C4.31199 3.91444 0.828125 7.18563 0.828125 11.2072C0.828125 15.2287 4.31199 18.4999 8.59499 18.4999C11.473 18.4999 16.2272 15.2595 21.2602 11.8295C25.588 8.87917 30.4949 5.53505 32.7586 5.53505C36.0888 5.53505 38.7994 8.08021 38.7994 11.2072C38.7994 14.3341 36.0888 16.8793 32.7586 16.8793C31.3916 16.8793 28.9079 15.7765 25.7649 13.7734C25.3714 13.5206 24.8346 13.6194 24.5662 13.9889C24.2979 14.3593 24.4014 14.8633 24.7958 15.1145C28.3202 17.3606 30.9998 18.4999 32.7586 18.4999C37.0415 18.4999 40.5254 15.2287 40.5254 11.2072C40.5254 7.18563 37.0415 3.91444 32.7586 3.91444Z" fill="#5454D4"/>
</svg>
