<svg width="51" height="51" viewBox="0 0 51 51" fill="none" xmlns="http://www.w3.org/2000/svg">
<path d="M24.8925 13.1292C25.0947 13.1193 25.2973 13.1143 25.5002 13.1143C25.7031 13.1143 25.9058 13.1193 26.108 13.1292L26.7514 0.0307145C26.3352 0.0102625 25.9179 0 25.5002 0C25.0825 0 24.6654 0.0102625 24.249 0.0307145L24.8925 13.1292Z" fill="white"/>
<path d="M22.4902 13.4854C22.8835 13.3869 23.2813 13.3077 23.6823 13.2482L21.7581 0.275879C20.9325 0.398347 20.1134 0.561278 19.3037 0.764081L22.4902 13.4854Z" fill="white"/>
<path d="M27.3184 13.2482C27.7194 13.3077 28.1172 13.3869 28.5105 13.4854L31.697 0.76408C30.8873 0.561279 30.0683 0.398347 29.2426 0.275879L27.3184 13.2482Z" fill="white"/>
<path d="M20.7595 14.0572C20.947 13.9795 21.1361 13.9066 21.3268 13.8384L16.9086 1.49072C16.5162 1.63115 16.1268 1.78132 15.7409 1.94117C15.355 2.10101 14.9735 2.27015 14.5967 2.44836L20.2038 14.3036C20.3868 14.217 20.5721 14.1349 20.7595 14.0572Z" fill="white"/>
<path d="M29.6729 13.8384C29.8635 13.9066 30.0526 13.9795 30.2401 14.0572C30.4275 14.1349 30.6128 14.217 30.7958 14.3036L36.4029 2.44837C36.0261 2.27015 35.6446 2.10102 35.2587 1.94117C34.8728 1.78132 34.4834 1.63115 34.091 1.49072L29.6729 13.8384Z" fill="white"/>
<path d="M18.1218 15.5517C18.4474 15.3102 18.7847 15.0848 19.1324 14.8764L12.3903 3.62793C11.6744 4.05703 10.98 4.52101 10.3096 5.01821L18.1218 15.5517Z" fill="white"/>
<path d="M31.8672 14.8764C32.2149 15.0848 32.5522 15.3102 32.8778 15.5517L40.69 5.01821C40.0196 4.52101 39.3252 4.05703 38.6093 3.62793L31.8672 14.8764Z" fill="white"/>
<path d="M16.7427 16.7417C16.8861 16.5982 17.0329 16.4584 17.1829 16.3225L8.37592 6.60547C8.06709 6.8854 7.76483 7.17316 7.46948 7.4685C7.17413 7.76385 6.88638 8.06611 6.60645 8.37494L16.3235 17.182C16.4594 17.032 16.5992 16.8851 16.7427 16.7417Z" fill="white"/>
<path d="M33.8174 16.3225C33.9674 16.4584 34.1142 16.5982 34.2576 16.7417C34.4011 16.8851 34.5409 17.032 34.6768 17.182L44.3939 8.37494C44.1139 8.06611 43.8262 7.76385 43.5308 7.4685C43.2355 7.17316 42.9332 6.8854 42.6244 6.60547L33.8174 16.3225Z" fill="white"/>
<path d="M14.8754 19.1324C15.0839 18.7847 15.3092 18.4474 15.5507 18.1218L5.01724 10.3096C4.52004 10.98 4.05605 11.6744 3.62695 12.3903L14.8754 19.1324Z" fill="white"/>
<path d="M35.4482 18.1218C35.6898 18.4474 35.9151 18.7847 36.1235 19.1324L47.372 12.3903C46.943 11.6744 46.479 10.98 45.9817 10.3096L35.4482 18.1218Z" fill="white"/>
<path d="M14.0578 20.76C14.1355 20.5726 14.2176 20.3873 14.3042 20.2043L2.44904 14.5972C2.27082 14.974 2.10168 15.3555 1.94184 15.7414C1.78199 16.1273 1.63182 16.5167 1.49139 16.9091L13.8391 21.3272C13.9073 21.1366 13.9802 20.9475 14.0578 20.76Z" fill="white"/>
<path d="M36.6964 20.2043C36.7829 20.3873 36.8651 20.5726 36.9427 20.76C37.0204 20.9475 37.0933 21.1366 37.1615 21.3272L49.5092 16.9092C49.3688 16.5167 49.2186 16.1273 49.0588 15.7414C48.8989 15.3555 48.7297 14.974 48.5515 14.5972L36.6964 20.2043Z" fill="white"/>
<path d="M13.2487 23.6828C13.3082 23.2818 13.3874 22.8839 13.4858 22.4907L0.764569 19.3042C0.561768 20.1139 0.398836 20.9329 0.276367 21.7585L13.2487 23.6828Z" fill="white"/>
<path d="M37.5137 22.4907C37.6122 22.8839 37.6913 23.2818 37.7508 23.6828L50.7231 21.7585C50.6007 20.933 50.4377 20.1139 50.2349 19.3042L37.5137 22.4907Z" fill="white"/>
<path d="M13.1143 25.4997C13.1143 25.2968 13.1193 25.0942 13.1292 24.892L0.0307145 24.2485C0.0102625 24.6649 0 25.082 0 25.4997C-5.01415e-07 28.8485 0.659577 32.1644 1.94107 35.2581C3.22257 38.352 5.10088 41.1631 7.46878 43.531C9.83665 45.8988 12.6478 47.7772 15.7415 49.0587C18.8354 50.3401 22.1513 50.9997 25.5 50.9997C28.8487 50.9997 32.1646 50.3401 35.2585 49.0587C38.3522 47.7772 41.1634 45.8988 43.5312 43.531C45.8991 41.1631 47.7774 38.352 49.0589 35.2581C50.3404 32.1644 51 28.8485 51 25.4997C51 25.082 50.9897 24.6649 50.9693 24.2485L37.8708 24.892C37.8807 25.0942 37.8857 25.2969 37.8857 25.4997C37.8857 27.1262 37.5654 28.7368 36.9429 30.2396C36.3204 31.7422 35.4082 33.1076 34.258 34.2577C33.1079 35.4079 31.7425 36.3202 30.2398 36.9427C28.7371 37.5651 27.1265 37.8854 25.5 37.8854C23.8735 37.8854 22.2629 37.5651 20.7602 36.9427C19.2575 36.3202 17.8921 35.4079 16.742 34.2577C15.5918 33.1076 14.6796 31.7422 14.0571 30.2396C13.4346 28.7368 13.1143 27.1262 13.1143 25.4997Z" fill="white"/>
</svg>
