<svg width="30" height="30" viewBox="0 0 30 30" fill="none" xmlns="http://www.w3.org/2000/svg">
<path fill-rule="evenodd" clip-rule="evenodd" d="M7.79961 7.80001V6.00001C7.79961 3.01767 10.2173 0.600006 13.1996 0.600006H16.7996C19.7819 0.600006 22.1996 3.01767 22.1996 6.00001V7.80001H25.7996C27.7878 7.80001 29.3996 9.41178 29.3996 11.4V17.8274C24.917 19.4905 20.0664 20.3999 14.9997 20.3999C9.93287 20.3999 5.08227 19.4905 0.599609 17.8273V11.4C0.599609 9.41178 2.21138 7.80001 4.19961 7.80001H7.79961ZM11.3996 6.00001C11.3996 5.00589 12.2055 4.20001 13.1996 4.20001H16.7996C17.7937 4.20001 18.5996 5.00589 18.5996 6.00001V7.80001H11.3996V6.00001ZM13.1996 15C13.1996 14.0059 14.0055 13.2 14.9996 13.2H15.0176C16.0117 13.2 16.8176 14.0059 16.8176 15C16.8176 15.9941 16.0117 16.8 15.0176 16.8H14.9996C14.0055 16.8 13.1996 15.9941 13.1996 15Z" fill="white"/>
<path d="M0.599609 21.6461V25.8C0.599609 27.7882 2.21138 29.4 4.19961 29.4H25.7996C27.7878 29.4 29.3996 27.7882 29.3996 25.8V21.6461C24.8766 23.1728 20.0331 23.9999 14.9997 23.9999C9.96614 23.9999 5.12264 23.1728 0.599609 21.6461Z" fill="white"/>
</svg>
