<svg width="30" height="30" viewBox="0 0 30 30" fill="none" xmlns="http://www.w3.org/2000/svg">
<path fill-rule="evenodd" clip-rule="evenodd" d="M14.9996 29.4C22.9525 29.4 29.3996 22.9529 29.3996 15C29.3996 7.04711 22.9525 0.600006 14.9996 0.600006C7.04671 0.600006 0.599609 7.04711 0.599609 15C0.599609 22.9529 7.04671 29.4 14.9996 29.4ZM21.6724 12.6728C22.3753 11.9699 22.3753 10.8302 21.6724 10.1272C20.9695 9.42427 19.8298 9.42427 19.1268 10.1272L13.1996 16.0544L10.8724 13.7272C10.1695 13.0243 9.02976 13.0243 8.32682 13.7272C7.62387 14.4302 7.62387 15.5699 8.32682 16.2728L11.9268 19.8728C12.6298 20.5757 13.7695 20.5757 14.4724 19.8728L21.6724 12.6728Z" fill="white"/>
</svg>
