<svg width="24" height="24" viewBox="0 0 24 24" fill="none" xmlns="http://www.w3.org/2000/svg">
<path fill-rule="evenodd" clip-rule="evenodd" d="M12 24C18.6274 24 24 18.6274 24 12C24 5.37258 18.6274 0 12 0C5.37258 0 0 5.37258 0 12C0 18.6274 5.37258 24 12 24Z" fill="#55ACEE"/>
<path fill-rule="evenodd" clip-rule="evenodd" d="M17.4972 7.41041C17.1585 7.62736 16.3808 7.94263 15.9973 7.94263V7.94327C15.5594 7.4858 14.9428 7.2002 14.2591 7.2002C12.9311 7.2002 11.8542 8.27706 11.8542 9.60455C11.8542 9.78899 11.8756 9.9689 11.9151 10.1414H11.9147C10.1133 10.0941 8.1431 9.19124 6.95705 7.64589C6.22783 8.9081 6.85887 10.3119 7.6864 10.8234C7.40313 10.8447 6.88167 10.7907 6.63622 10.5512C6.61977 11.389 7.02259 12.499 8.49139 12.9017C8.20851 13.0539 7.70777 13.0102 7.49004 12.9779C7.56646 13.6851 8.5568 14.6096 9.63975 14.6096C9.25376 15.0561 7.80154 15.8659 6.17188 15.6082C7.27866 16.2816 8.56858 16.6716 9.93389 16.6716C13.8138 16.6716 16.8269 13.5272 16.6647 9.64807C16.6641 9.64379 16.6641 9.63952 16.6637 9.63485C16.6641 9.62488 16.6647 9.61491 16.6647 9.60455C16.6647 9.5925 16.6637 9.5811 16.6633 9.56944C17.0165 9.32788 17.4904 8.90058 17.829 8.33819C17.6327 8.44634 17.0436 8.66291 16.4954 8.71666C16.8472 8.52678 17.3684 7.90493 17.4972 7.41041Z" fill="white"/>
</svg>
