<svg width="41" height="31" viewBox="0 0 41 31" fill="none" xmlns="http://www.w3.org/2000/svg">
<path d="M21.4928 30.9H2.99851C1.60568 30.9 0.476563 29.8113 0.476562 28.4684V2.53155C0.476562 1.18863 1.60568 0.0999756 2.99851 0.0999756H21.4928V1.72103H2.99851C2.53423 1.72103 2.15786 2.08391 2.15786 2.53155V28.4684C2.15786 28.916 2.53423 29.2789 2.99851 29.2789H21.4928V30.9Z" fill="#5454D4"/>
<path fill-rule="evenodd" clip-rule="evenodd" d="M23.8281 0.0999756H37.5931C39.0185 0.0999756 40.1741 1.18863 40.1741 2.53155V28.4684C40.1741 29.8113 39.0185 30.9 37.5931 30.9H23.8281V0.0999756ZM28.9902 22.7947H35.0124C35.4875 22.7947 35.8727 22.4318 35.8727 21.9842C35.8727 21.5365 35.4875 21.1737 35.0124 21.1737H28.9902C28.5151 21.1737 28.1299 21.5365 28.1299 21.9842C28.1299 22.4318 28.5151 22.7947 28.9902 22.7947ZM35.0124 16.3105H28.9902C28.5151 16.3105 28.1299 15.9476 28.1299 15.5C28.1299 15.0523 28.5151 14.6894 28.9902 14.6894H35.0124C35.4875 14.6894 35.8727 15.0523 35.8727 15.5C35.8727 15.9476 35.4875 16.3105 35.0124 16.3105ZM28.9902 9.82627H35.0124C35.4875 9.82627 35.8727 9.46339 35.8727 9.01574C35.8727 8.5681 35.4875 8.20522 35.0124 8.20522H28.9902C28.5151 8.20522 28.1299 8.5681 28.1299 9.01574C28.1299 9.46339 28.5151 9.82627 28.9902 9.82627Z" fill="#5454D4"/>
</svg>
