<svg width="492" height="400" viewBox="0 0 492 400" fill="none" xmlns="http://www.w3.org/2000/svg">
<g clip-path="url(#clip0_543_621)">
<path d="M491.794 334.16H0.644531V334.385H491.794V334.16Z" fill="#EBEBEB"/>
<path d="M442.581 348.641H410.047V348.866H442.581V348.641Z" fill="#EBEBEB"/>
<path d="M326.002 351.089H317.466V351.314H326.002V351.089Z" fill="#EBEBEB"/>
<path d="M409.064 340.289H390.214V340.514H409.064V340.289Z" fill="#EBEBEB"/>
<path d="M94.6013 341.801H52.1758V342.026H94.6013V341.801Z" fill="#EBEBEB"/>
<path d="M109.571 341.801H103.354V342.026H109.571V341.801Z" fill="#EBEBEB"/>
<path d="M221.809 345.599H129.787V345.824H221.809V345.599Z" fill="#EBEBEB"/>
<path d="M233.449 294.02H43.7768C42.291 294.018 40.8668 293.475 39.8171 292.512C38.7673 291.548 38.1777 290.242 38.1777 288.881V44.594C38.1907 43.2404 38.786 41.9462 39.8343 40.9924C40.8827 40.0386 42.2994 39.5023 43.7768 39.5H233.449C234.936 39.5 236.363 40.0414 237.415 41.0052C238.467 41.9689 239.058 43.2761 239.058 44.639V288.881C239.058 290.244 238.467 291.551 237.415 292.515C236.363 293.479 234.936 294.02 233.449 294.02ZM43.7768 39.68C42.3561 39.6824 40.9944 40.2012 39.9907 41.1225C38.987 42.0437 38.4233 43.2923 38.4233 44.594V288.881C38.4233 290.183 38.987 291.431 39.9907 292.353C40.9944 293.274 42.3561 293.793 43.7768 293.795H233.449C234.871 293.793 236.233 293.274 237.238 292.353C238.244 291.432 238.81 290.184 238.812 288.881V44.594C238.81 43.2915 238.244 42.0429 237.238 41.1219C236.233 40.2009 234.871 39.6824 233.449 39.68H43.7768Z" fill="#EBEBEB"/>
<path d="M445.93 294.02H256.249C254.762 294.018 253.337 293.475 252.285 292.512C251.234 291.549 250.642 290.243 250.64 288.881V44.594C250.655 43.2396 251.253 41.9454 252.303 40.9918C253.352 40.0383 254.77 39.5023 256.249 39.5H445.93C447.406 39.5047 448.82 40.042 449.867 40.9956C450.913 41.9491 451.507 43.242 451.52 44.594V288.881C451.52 290.241 450.931 291.545 449.884 292.508C448.836 293.472 447.415 294.015 445.93 294.02ZM256.249 39.68C254.827 39.6824 253.464 40.2009 252.459 41.1219C251.454 42.0429 250.888 43.2915 250.885 44.594V288.881C250.888 290.184 251.454 291.432 252.459 292.353C253.464 293.274 254.827 293.793 256.249 293.795H445.93C447.352 293.793 448.715 293.274 449.72 292.353C450.725 291.432 451.291 290.184 451.294 288.881V44.594C451.291 43.2915 450.725 42.0429 449.72 41.1219C448.715 40.2009 447.352 39.6824 445.93 39.68H256.249Z" fill="#EBEBEB"/>
<path d="M353.604 161.225C382.043 161.225 405.096 140.103 405.096 114.047C405.096 87.9914 382.043 66.8691 353.604 66.8691C325.166 66.8691 302.112 87.9914 302.112 114.047C302.112 140.103 325.166 161.225 353.604 161.225Z" fill="#E0E0E0"/>
<path d="M349.694 161.225C378.133 161.225 401.186 140.103 401.186 114.047C401.186 87.9914 378.133 66.8691 349.694 66.8691C321.256 66.8691 298.202 87.9914 298.202 114.047C298.202 140.103 321.256 161.225 349.694 161.225Z" fill="#F5F5F5"/>
<path d="M383.351 144.887C401.937 127.858 401.937 100.249 383.351 83.2203C364.765 66.1915 334.631 66.1915 316.045 83.2203C297.459 100.249 297.459 127.858 316.045 144.887C334.631 161.916 364.765 161.916 383.351 144.887Z" fill="white"/>
<path d="M357.808 145.781C357.549 145.781 357.298 145.702 357.094 145.555C356.891 145.407 356.748 145.202 356.688 144.971L348.574 114.299C348.517 114.031 348.575 113.753 348.735 113.523C348.896 113.293 349.147 113.128 349.437 113.063C349.726 112.998 350.032 113.038 350.29 113.174C350.549 113.311 350.74 113.533 350.824 113.795L358.928 144.476C358.999 144.749 358.949 145.037 358.789 145.277C358.628 145.516 358.371 145.688 358.073 145.754C357.986 145.772 357.897 145.781 357.808 145.781Z" fill="#F5F5F5"/>
<path d="M349.695 116.162C349.392 116.162 349.092 116.107 348.812 116.001C348.532 115.894 348.278 115.738 348.064 115.541L320.216 90.026C320.002 89.8293 319.832 89.5957 319.716 89.3389C319.601 89.082 319.542 88.8067 319.542 88.5289C319.543 87.9677 319.787 87.4298 320.221 87.0335C320.655 86.6373 321.242 86.4152 321.855 86.416C322.468 86.4169 323.055 86.6406 323.487 87.038L349.695 111.059L364.989 97.046C365.423 96.6498 366.011 96.4277 366.623 96.4285C367.236 96.4294 367.823 96.6531 368.255 97.0505C368.688 97.448 368.93 97.9865 368.929 98.5477C368.928 99.1089 368.684 99.6468 368.25 100.043L351.325 115.541C350.893 115.938 350.307 116.161 349.695 116.162Z" fill="#EBEBEB"/>
<path d="M218.223 327.59H225.983V278.9H218.223V327.59Z" fill="#F0F0F0"/>
<path d="M61.2623 334.16H220.866V327.59H61.2623V334.16Z" fill="#F0F0F0"/>
<path d="M218.224 278.9H56.1348V327.59H218.224V278.9Z" fill="#F5F5F5"/>
<path d="M207.733 287.378H66.6162V315.188H207.733V287.378Z" fill="#F0F0F0"/>
<path d="M102.853 291.095H171.516C172.801 291.095 173.844 290.14 173.844 288.962V288.566C173.844 287.388 172.801 286.433 171.516 286.433H102.853C101.567 286.433 100.525 287.388 100.525 288.566V288.962C100.525 290.14 101.567 291.095 102.853 291.095Z" fill="#F5F5F5"/>
<path d="M52.5786 278.9H218.224V274.553H52.5786V278.9Z" fill="#F0F0F0"/>
<path d="M229.707 274.553H218.224V278.9H229.707V274.553Z" fill="#E6E6E6"/>
<path d="M422.729 227.492H407.602V334.16H422.729V227.492Z" fill="#F0F0F0"/>
<path d="M275.198 334.16H407.602V227.492H275.198V334.16Z" fill="#F5F5F5"/>
<path d="M273.989 324.791H390.234V267.74H273.989V324.791Z" fill="#FAFAFA"/>
<path d="M273.989 261.692H390.234V242.909H273.989V261.692Z" fill="#FAFAFA"/>
<g style="mix-blend-mode:multiply" opacity="0.7">
<path d="M391.276 267.74H390.234V324.791H391.276V267.74Z" fill="#E6E6E6"/>
</g>
<g style="mix-blend-mode:multiply" opacity="0.7">
<path d="M391.276 242.909H390.234V261.692H391.276V242.909Z" fill="#E6E6E6"/>
</g>
<g style="mix-blend-mode:multiply" opacity="0.7">
<path d="M422.729 231.992H274.863V234.404H422.729V231.992Z" fill="#E6E6E6"/>
</g>
<path d="M424.497 226.034H407.602V233.009H424.497V226.034Z" fill="#F0F0F0"/>
<path d="M273.429 233.009L407.602 233.009V226.034L273.429 226.034V233.009Z" fill="#F5F5F5"/>
<path d="M323.762 205.496C322.85 204.179 322.247 202.701 321.994 201.158C321.728 199.617 321.642 198.054 321.739 196.496C321.949 193.397 322.671 190.344 323.88 187.442C324.456 186.002 325.111 184.591 325.845 183.212C326.63 181.862 327.416 180.512 328.3 179.225C329.184 177.938 330.157 176.696 331.159 175.49C332.161 174.284 333.29 173.159 334.459 172.07C333.89 173.519 333.212 174.887 332.495 176.255C331.778 177.623 331.218 179 330.53 180.332L328.625 184.382L327.75 186.425L327.298 187.442L326.906 188.468C325.783 191.173 324.893 193.953 324.243 196.784C323.906 198.199 323.676 199.633 323.556 201.077C323.409 202.552 323.479 204.038 323.762 205.496Z" fill="#E6E6E6"/>
<path d="M304.695 207.881C304.822 205.708 304.613 203.53 304.076 201.41C303.574 199.477 302.589 197.678 301.198 196.154C299.716 194.643 297.962 193.377 296.012 192.41C293.998 191.339 291.778 190.502 289.489 189.512C292.033 189.263 294.605 189.515 297.033 190.25C298.288 190.626 299.489 191.14 300.609 191.78C301.754 192.456 302.79 193.277 303.683 194.219C305.467 196.146 306.504 198.561 306.63 201.086C306.766 203.479 306.09 205.853 304.695 207.881Z" fill="#E6E6E6"/>
<path d="M305.55 207.566C305.467 205.033 305.208 202.508 304.774 200.006C304.369 197.621 303.646 195.291 302.623 193.067C301.599 190.88 300.192 188.862 298.458 187.091C296.586 185.26 294.505 183.618 292.25 182.195C295.155 182.607 297.895 183.698 300.207 185.363C302.576 187.087 304.437 189.327 305.619 191.879C306.785 194.39 307.364 197.097 307.318 199.826C307.336 202.492 306.733 205.13 305.55 207.566Z" fill="#E6E6E6"/>
<path d="M322.455 202.967C320.321 200.43 318.509 197.68 317.052 194.768C315.572 191.864 314.353 188.854 313.408 185.768C312.452 182.674 311.817 179.504 311.512 176.3C311.191 173.097 311.352 169.869 311.994 166.706C312.711 169.865 313.261 172.916 314.047 175.949C314.832 178.982 315.618 181.97 316.551 184.949C317.485 187.928 318.428 190.907 319.439 193.886C320.451 196.865 321.483 199.889 322.455 202.967Z" fill="#E6E6E6"/>
<path d="M321.571 202.742C319.139 200.563 316.972 198.149 315.107 195.542C313.24 192.943 311.598 190.213 310.196 187.379C308.774 184.538 307.643 181.582 306.817 178.55C305.98 175.512 305.6 172.385 305.687 169.253C306.925 172.187 307.995 175.031 309.262 177.83C310.53 180.629 311.787 183.401 313.192 186.146C314.596 188.891 315.952 191.627 317.386 194.381C318.82 197.135 320.205 199.88 321.571 202.742Z" fill="#E6E6E6"/>
<path d="M325.226 205.622C322.472 204.286 319.914 202.634 317.613 200.708C315.297 198.794 313.182 196.685 311.297 194.408C309.374 192.143 307.727 189.693 306.386 187.1C305.043 184.509 304.148 181.743 303.733 178.901C305.423 181.322 306.916 183.689 308.645 185.948C310.374 188.207 312.044 190.448 313.881 192.599C315.717 194.75 317.554 196.91 319.46 199.052C321.366 201.194 323.301 203.372 325.226 205.622Z" fill="#E6E6E6"/>
<path d="M319.892 202.76C317.216 201.751 314.735 200.353 312.544 198.62C310.334 196.917 308.356 194.977 306.65 192.842C305.784 191.778 304.984 190.669 304.254 189.521C303.542 188.358 302.909 187.156 302.358 185.921C301.228 183.477 300.535 180.882 300.305 178.235C301.847 180.494 303.114 182.735 304.646 184.841C305.334 185.93 306.159 186.938 306.876 188C307.593 189.062 308.428 190.052 309.273 191.042C310.897 193.046 312.6 195.011 314.381 196.937C316.11 198.89 317.927 200.789 319.892 202.76Z" fill="#E6E6E6"/>
<path d="M324.076 204.299C322.806 203.477 321.79 202.367 321.129 201.077C320.447 199.789 319.967 198.42 319.705 197.009C319.214 194.211 319.301 191.353 319.96 188.585C320.278 187.226 320.672 185.883 321.139 184.562C321.699 183.275 322.2 181.97 322.868 180.737C323.536 179.504 324.243 178.298 325.039 177.137C325.857 175.986 326.739 174.875 327.681 173.807C327.367 175.166 326.925 176.453 326.503 177.74C326.08 179.027 325.727 180.323 325.265 181.574C324.803 182.825 324.528 184.121 324.106 185.372L323.624 187.271C323.457 187.901 323.261 188.531 323.163 189.17C322.57 191.668 322.267 194.218 322.259 196.775C322.247 198.052 322.372 199.327 322.632 200.582C322.878 201.887 323.366 203.145 324.076 204.299Z" fill="#E6E6E6"/>
<path d="M322.249 201.428C320.096 199.319 318.535 196.761 317.701 193.976C316.794 191.164 316.504 188.216 316.846 185.3C316.896 184.571 317.092 183.86 317.22 183.14L317.446 182.06L317.789 181.016C318.045 180.323 318.261 179.63 318.546 178.955C318.831 178.28 319.204 177.632 319.528 176.984L320.059 176.021L320.697 175.121L321.994 173.321C322.963 172.213 324.01 171.164 325.127 170.18C324.616 171.539 323.939 172.772 323.389 174.05L322.613 175.967L322.22 176.867L321.905 177.839C321.699 178.478 321.483 179.117 321.257 179.747L320.776 181.682L320.52 182.645L320.373 183.617C320.285 184.265 320.108 184.913 320.068 185.561C319.769 188.181 319.809 190.825 320.186 193.436C320.55 196.162 321.242 198.842 322.249 201.428Z" fill="#E6E6E6"/>
<path d="M318.104 200.33L304.027 188.855L306.11 204.434L318.104 200.33Z" fill="#E6E6E6"/>
<path d="M290.973 198.233H331.817L326.463 226.034H296.326L290.973 198.233Z" fill="#F5F5F5"/>
<path d="M316.492 198.233H331.816L326.463 226.034H318.417L316.492 198.233Z" fill="#EBEBEB"/>
<path d="M367.887 205.55C368.079 204.321 368.023 203.07 367.72 201.86C367.46 200.702 367.055 199.576 366.512 198.503C365.411 196.351 364.015 194.337 362.357 192.509C361.983 192.014 361.502 191.609 361.08 191.132C360.657 190.655 360.225 190.232 359.773 189.755C358.791 188.855 357.946 187.955 356.974 187.055C356.001 186.155 355.068 185.255 354.086 184.355C353.103 183.455 352.121 182.555 351.139 181.574C352.465 182.033 353.722 182.6 354.999 183.176C356.238 183.8 357.441 184.482 358.604 185.219C359.19 185.587 359.754 185.984 360.294 186.407C360.844 186.821 361.384 187.253 361.924 187.676C362.972 188.582 363.956 189.547 364.871 190.565C366.757 192.646 368.134 195.074 368.908 197.684C369.281 199.005 369.411 200.374 369.292 201.734C369.225 203.102 368.738 204.425 367.887 205.55Z" fill="#E6E6E6"/>
<path d="M390.852 201.779C389.817 200.961 389.052 199.895 388.642 198.701C388.415 198.085 388.267 197.448 388.2 196.802C388.181 196.472 388.181 196.141 388.2 195.812C388.189 195.482 388.222 195.153 388.299 194.831C388.875 192.271 390.336 189.948 392.463 188.207C392.955 187.766 393.515 187.415 394.035 187.019C394.553 186.625 395.105 186.269 395.685 185.957C396.255 185.651 396.825 185.336 397.414 185.057C397.699 184.913 397.984 184.751 398.288 184.625L399.192 184.274C399.801 184.04 400.41 183.824 401.019 183.608C401.625 183.383 402.249 183.203 402.886 183.068C404.151 182.766 405.433 182.525 406.726 182.348C405.711 183.085 404.652 183.77 403.554 184.4C403.013 184.697 402.503 185.03 401.992 185.372C401.481 185.714 401.009 186.02 400.44 186.335C399.369 186.92 398.475 187.667 397.493 188.297C397.002 188.612 396.536 188.958 396.098 189.332C395.646 189.692 395.116 190.016 394.742 190.394C393.041 191.772 391.698 193.482 390.813 195.398C390.626 195.88 390.475 196.373 390.361 196.874C390.271 197.395 390.225 197.921 390.224 198.449C390.224 199.583 390.436 200.71 390.852 201.779Z" fill="#E6E6E6"/>
<path d="M389.802 201.779C388.027 199.662 387.061 197.069 387.051 194.399C387.011 191.665 387.77 188.97 389.252 186.596L390.43 184.886C390.882 184.355 391.364 183.851 391.845 183.347L392.582 182.6L393.387 181.952L395.037 180.683C396.204 179.942 397.414 179.26 398.662 178.64C399.943 178.108 401.255 177.639 402.591 177.236C401.609 178.19 400.627 179.036 399.576 179.846C398.525 180.656 397.67 181.583 396.747 182.438C396.314 182.906 395.892 183.338 395.45 183.797L394.792 184.454L394.232 185.174C393.859 185.651 393.446 186.074 393.083 186.578L392.1 188.063C390.855 190.066 390.013 192.258 389.615 194.534C389.208 196.94 389.271 199.394 389.802 201.779Z" fill="#E6E6E6"/>
<path d="M369.145 203.111C369.96 200.33 370.844 197.648 371.698 195.011C372.553 192.374 373.388 189.683 374.154 187.019C374.92 184.355 375.559 181.673 376.119 178.919C376.679 176.165 376.983 173.519 377.248 170.603C378.281 173.352 378.767 176.247 378.683 179.153C378.564 182.046 378.107 184.918 377.317 187.721C376.516 190.507 375.434 193.219 374.085 195.821C372.767 198.426 371.108 200.874 369.145 203.111Z" fill="#E6E6E6"/>
<path d="M370.165 202.661C371.442 199.961 372.817 197.261 374.173 194.678C375.528 192.095 376.894 189.467 378.2 186.857C379.507 184.247 380.764 181.628 381.933 178.973C383.102 176.318 384.104 173.573 385.086 170.747C385.39 173.735 385.154 176.748 384.389 179.666C383.614 182.567 382.538 185.394 381.177 188.108C379.809 190.8 378.209 193.388 376.393 195.848C374.594 198.32 372.506 200.605 370.165 202.661Z" fill="#E6E6E6"/>
<path d="M366.168 206.09C368.083 203.678 370.097 201.401 372.062 199.124C374.026 196.847 375.991 194.624 377.897 192.329C379.802 190.034 381.669 187.757 383.456 185.399C385.244 183.041 386.875 180.611 388.535 178.037C388.1 181.011 387.134 183.9 385.676 186.587C384.216 189.256 382.479 191.791 380.49 194.156C378.499 196.499 376.308 198.693 373.938 200.717C371.57 202.762 368.964 204.564 366.168 206.09Z" fill="#E6E6E6"/>
<path d="M372.18 202.166C374.056 200.015 375.932 197.981 377.779 195.92C379.625 193.859 381.413 191.816 383.162 189.737C384.91 187.658 386.531 185.516 388.073 183.329C389.615 181.142 391.02 178.829 392.533 176.435C392.312 179.202 391.568 181.912 390.333 184.445C389.102 186.974 387.549 189.361 385.706 191.555C383.879 193.738 381.819 195.749 379.557 197.558C377.331 199.386 374.85 200.935 372.18 202.166Z" fill="#E6E6E6"/>
<path d="M367.377 204.677C368.443 202.725 368.956 200.559 368.87 198.377C368.74 196.295 368.159 194.257 367.161 192.383L366.827 191.654L366.404 190.952L365.579 189.53C364.921 188.63 364.332 187.667 363.615 186.74C362.897 185.813 362.249 184.886 361.522 183.959C360.759 183.027 360.047 182.059 359.391 181.061C360.52 181.63 361.616 182.255 362.671 182.933C363.702 183.651 364.685 184.424 365.618 185.246C366.084 185.664 366.521 186.109 366.925 186.578C367.344 187.04 367.757 187.508 368.163 187.982L369.214 189.539L369.715 190.331L370.127 191.177C371.326 193.458 371.769 196.011 371.404 198.521C371.23 199.745 370.782 200.924 370.089 201.983C369.396 203.042 368.473 203.959 367.377 204.677Z" fill="#E6E6E6"/>
<path d="M369.202 201.806C370.01 199.575 370.563 197.274 370.852 194.939C371.118 192.762 370.941 190.559 370.332 188.441C370.026 187.397 369.597 186.386 369.055 185.426C368.514 184.436 367.876 183.493 367.149 182.609C365.585 180.737 363.871 178.974 362.021 177.335C364.653 178.049 367.066 179.319 369.065 181.043C370.107 181.921 371.012 182.927 371.756 184.031C372.522 185.147 373.105 186.36 373.485 187.631C374.225 190.175 374.18 192.857 373.357 195.38C372.613 197.82 371.18 200.036 369.202 201.806Z" fill="#E6E6E6"/>
<path d="M374.007 199.673L389.37 186.155L388.751 199.412L374.007 199.673Z" fill="#E6E6E6"/>
<path d="M357.199 198.233H398.043L392.69 226.034H362.553L357.199 198.233Z" fill="#F5F5F5"/>
<path d="M382.709 198.233H398.043L392.689 226.034H384.644L382.709 198.233Z" fill="#EBEBEB"/>
<path d="M102.676 71.6479V217.448C102.676 223.511 100.047 229.325 95.3682 233.612C90.6891 237.899 84.3428 240.308 77.7256 240.308H193.637C200.255 240.308 206.602 237.9 211.283 233.613C215.964 229.326 218.594 223.512 218.597 217.448V71.6479H102.676Z" fill="#F5F5F5"/>
<path d="M200.405 108.557H125.505V177.182H200.405V108.557Z" fill="#F0F0F0"/>
<path d="M198.106 106.442H123.206V175.067H198.106V106.442Z" fill="white"/>
<path d="M141.595 185.228H122.548V202.679H141.595V185.228Z" fill="white"/>
<path d="M198.097 185.228H179.05V202.679H198.097V185.228Z" fill="white"/>
<path d="M169.846 185.228H150.799V202.679H169.846V185.228Z" fill="white"/>
<path d="M218.617 71.6479H102.677V88.9999H218.617V71.6479Z" fill="#F0F0F0"/>
<path d="M109.68 66.0767V77.2187C109.678 77.6268 109.765 78.0311 109.935 78.4083C110.105 78.7856 110.354 79.1283 110.669 79.4169C110.984 79.7055 111.358 79.9341 111.77 80.0897C112.182 80.2454 112.623 80.3249 113.069 80.3237C113.514 80.3237 113.954 80.2434 114.366 80.0873C114.777 79.9313 115.15 79.7026 115.465 79.4142C115.78 79.1259 116.029 78.7836 116.2 78.4069C116.37 78.0302 116.458 77.6264 116.458 77.2187V66.0767C116.455 65.2539 116.097 64.4655 115.462 63.8837C114.827 63.302 113.967 62.9741 113.069 62.9717C112.17 62.9717 111.308 63.2988 110.672 63.8811C110.037 64.4634 109.68 65.2532 109.68 66.0767Z" fill="#E6E6E6"/>
<path d="M204.884 66.0772V77.2192C204.884 78.0427 205.241 78.8324 205.876 79.4147C206.512 79.997 207.374 80.3242 208.273 80.3242C208.718 80.3254 209.159 80.2459 209.571 80.0902C209.983 79.9346 210.357 79.7059 210.672 79.4174C210.987 79.1288 211.236 78.7861 211.406 78.4088C211.576 78.0316 211.663 77.6273 211.662 77.2192V66.0772C211.662 65.2537 211.305 64.4639 210.669 63.8816C210.034 63.2993 209.172 62.9722 208.273 62.9722C207.375 62.9745 206.514 63.3024 205.879 63.8842C205.244 64.466 204.886 65.2544 204.884 66.0772Z" fill="#E6E6E6"/>
<path d="M185.837 66.0767V77.2187C185.837 77.6264 185.925 78.0302 186.095 78.4069C186.265 78.7836 186.515 79.1259 186.83 79.4143C187.144 79.7026 187.518 79.9313 187.929 80.0873C188.34 80.2434 188.781 80.3237 189.226 80.3237C189.671 80.3237 190.112 80.2434 190.523 80.0873C190.934 79.9313 191.307 79.7026 191.622 79.4143C191.937 79.1259 192.187 78.7836 192.357 78.4069C192.527 78.0302 192.615 77.6264 192.615 77.2187V66.0767C192.612 65.257 192.257 64.4713 191.626 63.8901C190.996 63.3088 190.14 62.9788 189.245 62.9717C188.799 62.9705 188.357 63.0499 187.944 63.2053C187.531 63.3607 187.156 63.5891 186.839 63.8774C186.523 64.1657 186.271 64.5083 186.099 64.8857C185.927 65.2631 185.838 65.6678 185.837 66.0767Z" fill="#E6E6E6"/>
<path d="M166.79 66.0767V77.2187C166.789 77.6268 166.876 78.0311 167.045 78.4083C167.215 78.7856 167.465 79.1283 167.78 79.4169C168.095 79.7055 168.469 79.9341 168.881 80.0897C169.292 80.2454 169.734 80.3249 170.179 80.3237C171.072 80.3165 171.925 79.986 172.553 79.4042C173.18 78.8224 173.531 78.0367 173.529 77.2187V66.0767C173.529 65.2547 173.173 64.4663 172.54 63.8843C171.906 63.3022 171.047 62.9741 170.15 62.9717C169.256 62.9788 168.401 63.3091 167.772 63.8906C167.143 64.4721 166.79 65.2578 166.79 66.0767Z" fill="#E6E6E6"/>
<path d="M147.744 66.0767V77.2187C147.743 77.626 147.829 78.0296 147.999 78.4062C148.168 78.7829 148.416 79.1253 148.73 79.4137C149.044 79.7021 149.417 79.931 149.828 80.0871C150.238 80.2433 150.679 80.3237 151.123 80.3237C151.569 80.3249 152.01 80.2454 152.422 80.0897C152.833 79.9341 153.208 79.7055 153.522 79.4169C153.837 79.1283 154.087 78.7856 154.257 78.4083C154.427 78.0311 154.513 77.6268 154.512 77.2187V66.0767C154.512 65.2532 154.155 64.4634 153.52 63.8811C152.884 63.2988 152.022 62.9717 151.123 62.9717C150.226 62.9741 149.367 63.3022 148.733 63.8843C148.1 64.4663 147.744 65.2547 147.744 66.0767Z" fill="#E6E6E6"/>
<path d="M128.688 66.0767V77.2187C128.687 77.6264 128.775 78.0302 128.945 78.4069C129.116 78.7836 129.365 79.1259 129.68 79.4142C129.995 79.7026 130.368 79.9313 130.78 80.0873C131.191 80.2434 131.631 80.3237 132.076 80.3237C132.521 80.3237 132.962 80.2434 133.373 80.0873C133.784 79.9313 134.158 79.7026 134.473 79.4142C134.787 79.1259 135.037 78.7836 135.207 78.4069C135.378 78.0302 135.465 77.6264 135.465 77.2187V66.0767C135.463 65.2539 135.105 64.4655 134.47 63.8837C133.835 63.302 132.974 62.9741 132.076 62.9717C131.178 62.9741 130.318 63.302 129.683 63.8837C129.048 64.4655 128.69 65.2539 128.688 66.0767Z" fill="#E6E6E6"/>
<path d="M183.225 230.696C183.225 233.233 184.325 235.667 186.283 237.461C188.241 239.255 190.897 240.263 193.667 240.263H63.2075C60.4381 240.263 57.7822 239.255 55.824 237.461C53.8657 235.667 52.7656 233.233 52.7656 230.696H183.225Z" fill="#E6E6E6"/>
<path d="M246.22 374.804C351.407 374.804 436.677 370.242 436.677 364.616C436.677 358.989 351.407 354.428 246.22 354.428C141.033 354.428 55.7617 358.989 55.7617 364.616C55.7617 370.242 141.033 374.804 246.22 374.804Z" fill="#F5F5F5"/>
<path opacity="0.2" d="M265.463 278.657C265.463 278.657 193.273 317.708 193.273 354.707H337.671C337.662 317.708 265.463 278.657 265.463 278.657Z" fill="#9395FF"/>
<path opacity="0.2" d="M265.463 325.25C265.463 325.25 198.805 340.379 198.805 354.707H332.122C332.122 340.379 265.463 325.25 265.463 325.25Z" fill="#9395FF"/>
<path opacity="0.3" d="M274.225 289.439C287.78 301.652 314.126 328.715 314.126 354.707H296.061C296.061 328.715 281.641 301.652 274.225 289.439Z" fill="white"/>
<path opacity="0.2" d="M265.463 278.657C265.463 278.657 193.273 239.606 193.273 202.607H337.671C337.662 239.606 265.463 278.657 265.463 278.657Z" fill="#9395FF"/>
<path opacity="0.2" d="M265.462 275.093C265.462 275.093 228.606 258.893 228.606 243.503H302.328C302.328 258.866 265.462 275.093 265.462 275.093Z" fill="#9395FF"/>
<path opacity="0.3" d="M257.595 267.875C244.049 255.662 217.733 228.599 217.733 202.607H235.798C235.759 228.599 250.149 255.662 257.595 267.875Z" fill="white"/>
<path opacity="0.3" d="M274.225 267.875C287.78 255.662 313.467 225.467 314.126 202.607H309.312C307.053 230.48 284.951 256.058 274.225 267.875Z" fill="white"/>
<path d="M327.857 189.548H319.675V190.448H327.857V189.548Z" fill="#9395FF"/>
<path d="M355.638 201.914H354.656C354.653 198.875 353.335 195.961 350.991 193.812C348.647 191.662 345.468 190.453 342.151 190.448H333.517V189.548H342.151C345.727 189.555 349.155 190.86 351.683 193.178C354.21 195.496 355.633 198.637 355.638 201.914Z" fill="#9395FF"/>
<path d="M342.141 192.698H188.784C183.229 192.698 178.726 196.824 178.726 201.914V203.3C178.726 208.39 183.229 212.516 188.784 212.516H342.141C347.696 212.516 352.2 208.39 352.2 203.3V201.914C352.2 196.824 347.696 192.698 342.141 192.698Z" fill="#9395FF"/>
<path d="M342.141 344.798H188.784C183.229 344.798 178.726 348.924 178.726 354.014V355.4C178.726 360.49 183.229 364.616 188.784 364.616H342.141C347.696 364.616 352.2 360.49 352.2 355.4V354.014C352.2 348.924 347.696 344.798 342.141 344.798Z" fill="#9395FF"/>
<path d="M138.874 264.068L132.214 258.65L143.569 242.675L150.229 248.084L138.874 264.068Z" fill="#FF8B7B"/>
<path d="M133.589 255.212L142.056 260.612C142.129 260.653 142.191 260.707 142.241 260.771C142.29 260.834 142.326 260.906 142.345 260.982C142.364 261.058 142.367 261.137 142.353 261.214C142.338 261.291 142.308 261.365 142.263 261.431L138.019 267.839C137.775 268.161 137.402 268.382 136.981 268.455C136.56 268.527 136.125 268.445 135.77 268.226C132.823 266.309 131.732 265.373 128.206 262.763C124.721 260.253 121.376 257.583 118.187 254.762C115.574 252.278 118.334 249.875 119.719 250.73C122.99 252.764 128.678 255.005 131.968 254.825C132.541 254.783 133.112 254.92 133.589 255.212Z" fill="#263238"/>
<path opacity="0.2" d="M150.219 248.093L143.559 242.675L138.098 250.37L144.925 255.563L150.219 248.093Z" fill="black"/>
<path d="M217.978 168.29C217.978 168.29 173.284 165.491 167.744 179.369C155.141 210.923 138.746 244.394 138.746 244.394L151.919 253.133C151.919 253.133 179.767 214.118 188.264 189.071C205.454 192.896 236.534 196.163 246.544 185.633C255.09 176.633 248.695 168.29 248.695 168.29H217.978Z" fill="#263238"/>
<path opacity="0.3" d="M179.698 192.815C178.657 196.667 177.075 207.701 176.093 215.018C178.264 211.166 180.326 207.26 182.183 203.444L179.698 192.815Z" fill="black"/>
<path d="M151.074 257.084L136.133 246.356L139.188 240.344L155.887 252.035L151.074 257.084Z" fill="#9395FF"/>
<path d="M130.003 254.717C130.696 255.131 131.433 255.478 132.204 255.752C132.242 255.765 132.283 255.767 132.323 255.758C132.362 255.75 132.399 255.732 132.427 255.705C132.456 255.679 132.476 255.646 132.485 255.61C132.494 255.573 132.492 255.536 132.479 255.5C132.351 255.194 131.231 252.503 130.062 252.242C129.928 252.214 129.788 252.218 129.656 252.252C129.524 252.287 129.403 252.352 129.306 252.44C129.141 252.56 129.014 252.716 128.937 252.895C128.859 253.073 128.834 253.267 128.864 253.457C129.063 253.991 129.468 254.439 130.003 254.717ZM131.899 255.212C130.357 254.6 129.394 253.925 129.286 253.412C129.269 253.287 129.29 253.16 129.345 253.044C129.4 252.929 129.488 252.829 129.6 252.755C129.646 252.711 129.704 252.678 129.767 252.661C129.831 252.643 129.899 252.642 129.964 252.656C130.593 252.8 131.408 254.141 131.899 255.212Z" fill="#9395FF"/>
<path d="M132.155 255.725C132.187 255.734 132.221 255.734 132.253 255.725C132.29 255.729 132.327 255.724 132.361 255.712C132.396 255.699 132.426 255.679 132.45 255.653C132.519 255.581 134.188 253.7 133.943 252.539C133.911 252.391 133.841 252.251 133.741 252.131C133.64 252.011 133.511 251.914 133.363 251.846C133.212 251.76 133.035 251.721 132.857 251.735C132.68 251.75 132.513 251.817 132.381 251.927C131.634 252.566 131.664 254.726 132.106 255.617C132.113 255.657 132.129 255.694 132.155 255.725ZM133.245 252.278C133.316 252.321 133.377 252.377 133.425 252.442C133.472 252.507 133.504 252.58 133.52 252.656C133.668 253.34 132.872 254.519 132.352 255.167C132.077 254.267 132.165 252.665 132.646 252.251C132.744 252.17 132.882 252.089 133.167 252.251L133.245 252.278Z" fill="#9395FF"/>
<path d="M197.596 273.509L189 275.084L187.409 253.997L196.142 254.249L197.596 273.509Z" fill="#FF8B7B"/>
<path d="M187.832 272.204L197.655 268.415C197.735 268.379 197.822 268.358 197.912 268.353C198.001 268.348 198.091 268.36 198.175 268.388C198.259 268.416 198.337 268.459 198.403 268.514C198.468 268.57 198.521 268.637 198.558 268.712L202.311 275.624C202.482 275.998 202.487 276.419 202.323 276.796C202.16 277.173 201.841 277.476 201.436 277.64C197.998 278.909 196.289 279.35 191.977 281.024C189.325 282.05 182.154 285.02 178.323 285.893C174.492 286.766 173.628 283.247 175.18 282.563C178.853 280.943 184.944 276.002 186.584 273.275C186.863 272.804 187.301 272.429 187.832 272.204Z" fill="#263238"/>
<path d="M185.386 274.796C186.16 274.472 186.894 274.074 187.577 273.608C187.61 273.584 187.636 273.552 187.652 273.516C187.668 273.479 187.672 273.44 187.665 273.401C187.653 273.363 187.631 273.329 187.6 273.302C187.569 273.275 187.53 273.256 187.488 273.248C187.135 273.176 183.952 272.591 183.058 273.383C182.956 273.473 182.882 273.586 182.842 273.711C182.802 273.836 182.799 273.968 182.832 274.094C182.854 274.289 182.932 274.475 183.058 274.633C183.184 274.791 183.353 274.916 183.549 274.994C184.167 275.139 184.822 275.068 185.386 274.796ZM186.889 273.554C185.465 274.454 184.296 274.841 183.716 274.634C183.587 274.58 183.476 274.494 183.397 274.386C183.317 274.278 183.271 274.152 183.264 274.022C183.245 273.961 183.244 273.896 183.262 273.834C183.279 273.773 183.314 273.716 183.362 273.671C183.844 273.248 185.612 273.356 186.889 273.554Z" fill="#9395FF"/>
<path d="M187.527 273.635C187.561 273.619 187.591 273.598 187.616 273.572C187.632 273.543 187.641 273.51 187.641 273.478C187.641 273.445 187.632 273.412 187.616 273.383C187.616 273.284 186.712 270.908 185.474 270.467C185.315 270.409 185.143 270.386 184.973 270.4C184.802 270.414 184.637 270.465 184.492 270.548C184.32 270.618 184.179 270.741 184.093 270.895C184.007 271.049 183.982 271.225 184.021 271.394C184.217 272.294 186.29 273.509 187.38 273.644C187.429 273.659 187.481 273.656 187.527 273.635ZM184.846 270.854C184.927 270.823 185.013 270.807 185.101 270.807C185.189 270.807 185.276 270.823 185.357 270.854C186.093 271.115 186.771 272.402 187.105 273.176C186.123 272.879 184.62 271.952 184.492 271.322C184.492 271.205 184.492 271.052 184.757 270.908L184.846 270.854Z" fill="#9395FF"/>
<path opacity="0.2" d="M196.152 254.258L187.409 253.997L188.244 265.013L196.947 264.869L196.152 254.258Z" fill="black"/>
<path d="M239.688 168.29C239.688 168.29 175.838 173.825 178.137 191.438C181.496 216.845 183.952 261.332 183.952 261.332L200.229 261.917C200.229 261.917 206.339 222.803 202.763 196.784C219.295 196.784 255.208 197.585 261.524 189.755C269.019 180.467 265.552 168.29 265.552 168.29H239.688Z" fill="#263238"/>
<path d="M202.026 262.835L182.488 261.944L181.791 254.159L203.215 255.509L202.026 262.835Z" fill="#9395FF"/>
<path d="M225.513 116.711C225.375 118.322 225.218 119.753 225.002 121.256C224.786 122.759 224.579 124.226 224.324 125.711C223.852 128.672 223.204 131.615 222.477 134.576C221.75 137.537 220.856 140.489 219.737 143.468C218.6 146.602 217.108 149.618 215.287 152.468C214.199 154.145 212.878 155.685 211.358 157.049C210.955 157.394 210.532 157.719 210.09 158.021C209.688 158.327 209.285 158.588 208.872 158.849C208.087 159.357 207.27 159.823 206.426 160.244C203.311 161.797 200.017 163.026 196.603 163.907C194.983 164.366 193.352 164.735 191.692 165.068C190.032 165.401 188.45 165.689 186.78 165.923C183.53 166.411 180.249 166.711 176.957 166.823C176.146 166.855 175.35 166.616 174.716 166.15C174.082 165.685 173.653 165.025 173.509 164.293C173.365 163.561 173.516 162.805 173.933 162.167C174.351 161.528 175.006 161.05 175.779 160.82L175.906 160.775C181.667 159.106 187.318 157.134 192.831 154.871C195.367 153.82 197.793 152.561 200.081 151.109C200.601 150.767 201.063 150.416 201.535 150.065C201.751 149.894 201.977 149.723 202.163 149.543C202.337 149.4 202.501 149.247 202.654 149.084C203.307 148.362 203.867 147.574 204.324 146.735C205.516 144.517 206.473 142.2 207.183 139.814C207.978 137.285 208.666 134.648 209.236 131.966C209.806 129.284 210.316 126.566 210.798 123.812C211.279 121.058 211.642 118.25 211.976 115.64V115.487C212.222 113.909 213.124 112.479 214.494 111.495C215.863 110.512 217.594 110.051 219.326 110.209C221.057 110.367 222.655 111.131 223.786 112.343C224.917 113.555 225.493 115.12 225.395 116.711H225.513Z" fill="#9395FF"/>
<path d="M177.283 159.2L172.371 159.479L176.3 167.759C176.3 167.759 184.797 167.588 184.62 163.754L183.088 161.954C182.387 161.146 181.507 160.483 180.507 160.009C179.506 159.534 178.407 159.259 177.283 159.2Z" fill="#FF8B7B"/>
<path d="M166.987 160.163L171.231 167.777H176.29L172.36 159.497L166.987 160.163Z" fill="#FF8B7B"/>
<path d="M224.806 103.949L234.304 102.149L241.868 101.15C242.949 100.988 244.047 100.943 245.139 101.015C248.042 101.256 250.795 102.303 253.031 104.016C255.267 105.729 256.88 108.026 257.654 110.6C259.55 116.9 261.259 124.631 262.565 131.48C264.392 140.993 265.335 155.285 265.512 168.281H220.513C219.531 144.746 214.069 129.581 212.213 120.176C211.653 117.337 212.128 114.408 213.564 111.84C215 109.272 217.317 107.208 220.159 105.965L224.806 103.949Z" fill="#9395FF"/>
<path d="M220.513 109.124C220.621 112.994 221.495 126.791 226.023 134.63C226.819 127.286 236.338 104.93 236.338 104.93L220.513 109.124Z" fill="#F5F5F5"/>
<path opacity="0.3" d="M263.596 137.942C263.596 137.798 263.596 137.663 263.537 137.51L263.449 136.862C263.4 136.511 263.351 136.16 263.302 135.827L263.154 134.864L263.007 133.964C263.007 133.712 262.918 133.451 262.879 133.208C262.781 132.632 262.683 132.074 262.575 131.525C262.25 129.842 261.907 128.096 261.533 126.341V126.197C261.16 124.397 260.777 122.66 260.364 120.905V120.788C260.197 120.032 260.021 119.294 259.834 118.547L259.628 117.719L259.274 116.288L258.979 115.172L258.92 114.938C258.528 113.462 258.125 112.013 257.712 110.645L250.885 107.351C251.671 110.114 252.418 113.156 253.125 116.27C252.308 116.662 251.554 117.156 250.885 117.737C249.255 119.069 249.314 121.904 250.944 125.261C255.458 134.86 257.957 145.153 258.311 155.6C258.518 159.839 258.645 164.132 258.704 168.299H265.58C265.384 157.976 264.755 146.852 263.596 137.942Z" fill="black"/>
<path d="M230.768 86.6064L226.908 92.0064L221.662 99.3414C222.337 99.9716 222.886 100.706 223.283 101.51C224.265 103.31 225.032 104.606 220.975 107.135C220.11 107.675 220.081 108.53 220.277 109.475C220.513 110.627 221.259 111.833 225.621 111.122C229.836 110.38 233.683 108.425 236.603 105.542C238.057 104.201 237.723 103.202 236.318 101.816C232.35 97.9014 231.161 91.6464 230.768 86.6064Z" fill="#FF8B7B"/>
<path d="M221.495 111.257L224.275 112.859L228.794 111.104C227.728 110.119 226.355 109.462 224.864 109.223C223.566 109.618 222.403 110.319 221.495 111.257Z" fill="#263238"/>
<path d="M224.815 109.223C226.888 110.006 227.929 111.77 228.872 113.804C228.872 113.804 238.803 106.91 239.01 102.365C238.479 100.817 235.994 101.087 235.994 101.087C235.994 101.087 232.969 105.893 224.815 109.223Z" fill="white"/>
<path d="M224.815 109.223C223.846 109.582 223.024 110.208 222.461 111.014C221.897 111.82 221.622 112.767 221.671 113.723C221.671 113.723 217.251 108.971 220.846 105.38C221.822 104.911 222.858 104.557 223.931 104.327C223.931 104.327 222.85 106.307 224.815 109.223Z" fill="white"/>
<path d="M225.149 112.112H223.882C223.469 112.76 222.9 121.202 222.674 125.693C223.281 128.315 224.173 130.875 225.336 133.334C225.332 133.364 225.332 133.394 225.336 133.424C225.405 133.568 225.473 133.703 225.552 133.838C225.689 134.108 225.827 134.378 225.984 134.63C226.438 131.842 227.144 129.094 228.096 126.413C226.799 121.211 225.149 112.112 225.149 112.112Z" fill="#263238"/>
<path opacity="0.2" d="M222.959 97.5322L226.181 92.3032C226.24 92.4292 226.318 92.5822 226.397 92.7262C226.679 93.3789 226.909 94.0497 227.084 94.7332C227.674 97.0642 225.709 100.376 223.538 101.933C223.45 101.789 223.371 101.636 223.283 101.483C222.896 100.728 222.397 100.025 221.8 99.3952L221.672 99.3052L222.959 97.5322Z" fill="black"/>
<path d="M207.261 86.2999C206.485 83.1049 212.035 78.6859 212.035 78.6859L205.463 76.5889C202.497 78.5419 204.422 84.1129 207.261 86.2999Z" fill="#263238"/>
<path d="M229.402 77.066C230.954 85.058 232.349 89.666 229.068 94.769C228.04 96.4446 226.531 97.8306 224.705 98.7771C222.879 99.7237 220.805 100.195 218.708 100.139C216.611 100.083 214.571 99.5033 212.807 98.4616C211.044 97.4199 209.626 95.9562 208.705 94.229C205.021 87.641 203.106 75.689 210.601 70.442C212.189 69.2687 214.086 68.4985 216.102 68.2086C218.117 67.9187 220.18 68.1193 222.085 68.7902C223.989 69.4611 225.667 70.5788 226.952 72.0313C228.236 73.4838 229.081 75.22 229.402 77.066Z" fill="#FF8B7B"/>
<path d="M229.52 85.1481L225.394 84.1131V79.2531C225.394 79.2531 220.178 76.5531 220.984 73.1781C221.384 71.2806 221.945 69.4149 222.664 67.5981C222.664 67.5981 230.935 67.1121 233.469 68.0841C232.813 68.7357 232.1 69.3376 231.337 69.8841C233.321 71.1412 235.022 72.7362 236.347 74.5821C235.311 74.7935 234.343 75.2216 233.518 75.8331C233.518 75.8331 234.599 82.5021 229.52 85.1481Z" fill="#263238"/>
<path d="M220.031 62.4141C223.067 64.1601 221.308 67.3641 221.308 67.3641L229.432 67.5171C229 65.1681 221.957 62.2971 220.031 62.4141Z" fill="#263238"/>
<path d="M223.204 74.8159C222.625 76.3099 216.043 78.1459 210.041 78.3259C207.05 78.2665 204.09 77.7556 201.279 76.8139C202.127 76.0166 203.125 75.367 204.226 74.8969C200.602 74.0779 196.014 71.1619 194.747 68.7859C197.394 67.9193 200.253 67.751 202.998 68.2999C202.1 67.6049 201.361 66.7526 200.827 65.7929C200.292 64.8333 199.972 63.7855 199.884 62.7109C199.884 62.7109 215.248 68.2909 221.161 65.9779C227.585 63.4579 232.467 68.1829 228.243 71.7829C224.02 75.3829 223.204 74.8159 223.204 74.8159Z" fill="#263238"/>
<path d="M234.097 82.8529C234.181 84.6156 233.555 86.3451 232.339 87.713C230.748 89.45 228.272 88.064 227.703 85.913C227.192 83.96 227.86 80.945 229.952 80.009C232.044 79.073 233.989 80.6659 234.097 82.8529Z" fill="#FF8B7B"/>
<path d="M216.122 84.5002C216.338 85.1302 216.122 85.7512 215.729 85.9042C215.336 86.0572 214.746 85.6612 214.52 85.0042C214.295 84.3472 214.52 83.7532 214.913 83.6002C215.306 83.4472 215.896 83.8342 216.122 84.5002Z" fill="#263238"/>
<path d="M208.509 87.02C208.725 87.641 208.509 88.271 208.116 88.415C207.723 88.559 207.134 88.181 206.908 87.515C206.682 86.849 206.908 86.264 207.301 86.12C207.694 85.976 208.283 86.39 208.509 87.02Z" fill="#263238"/>
<path d="M211.112 86.687C211.144 88.5496 210.906 90.4078 210.404 92.213C210.903 92.3102 211.419 92.3049 211.915 92.1975C212.41 92.0901 212.874 91.8833 213.273 91.592L211.112 86.687Z" fill="#A02724"/>
<path d="M215.768 93.9952C216.557 93.7529 217.285 93.3685 217.909 92.8647C218.533 92.3608 219.041 91.7476 219.403 91.0612C219.422 91.0134 219.421 90.9605 219.399 90.9135C219.377 90.8665 219.336 90.8292 219.285 90.8092C219.26 90.7988 219.232 90.7932 219.205 90.7925C219.177 90.7919 219.15 90.7963 219.124 90.8056C219.099 90.8148 219.075 90.8286 219.056 90.8463C219.036 90.8639 219.02 90.885 219.01 90.9082C218.611 91.6525 218.031 92.3027 217.313 92.8084C216.596 93.3141 215.762 93.6617 214.874 93.8242C214.847 93.8295 214.821 93.8398 214.798 93.8546C214.775 93.8694 214.755 93.8883 214.741 93.9102C214.726 93.9321 214.716 93.9565 214.712 93.982C214.708 94.0074 214.71 94.0334 214.717 94.0582C214.729 94.1071 214.761 94.1498 214.807 94.1768C214.853 94.2038 214.909 94.2129 214.963 94.2022C215.236 94.1493 215.505 94.0802 215.768 93.9952Z" fill="#263238"/>
<path d="M217.811 80.8102C217.872 80.7771 217.922 80.7307 217.958 80.6752C217.99 80.6334 218.011 80.5864 218.022 80.5369C218.033 80.4874 218.033 80.4364 218.022 80.3869C218.011 80.3374 217.989 80.2904 217.958 80.2487C217.927 80.207 217.887 80.1715 217.841 80.1442C217.288 79.8056 216.654 79.5958 215.994 79.5331C215.333 79.4703 214.665 79.5565 214.049 79.7842C213.999 79.806 213.954 79.8367 213.916 79.8746C213.879 79.9124 213.85 79.9566 213.831 80.0047C213.813 80.0527 213.804 80.1037 213.807 80.1547C213.81 80.2056 213.824 80.2556 213.848 80.3017C213.871 80.3477 213.905 80.3891 213.946 80.4233C213.988 80.4575 214.036 80.484 214.088 80.5011C214.141 80.5182 214.196 80.5257 214.252 80.5232C214.308 80.5206 214.362 80.508 214.412 80.4862C214.894 80.3149 215.414 80.2533 215.927 80.3066C216.44 80.3599 216.932 80.5265 217.359 80.7922C217.425 80.8341 217.502 80.858 217.582 80.8612C217.662 80.8644 217.742 80.8467 217.811 80.8102Z" fill="#263238"/>
<path d="M206.996 83.2309C207.015 83.1691 207.015 83.1037 206.996 83.0419C206.953 82.9479 206.871 82.8734 206.768 82.8347C206.665 82.7959 206.549 82.796 206.446 82.8349C205.828 83.055 205.278 83.4117 204.846 83.8733C204.414 84.3349 204.114 84.8871 203.971 85.4809C203.968 85.5742 204.003 85.6651 204.067 85.7371C204.132 85.809 204.223 85.857 204.324 85.8724C204.424 85.8877 204.527 85.8693 204.614 85.8205C204.701 85.7717 204.765 85.6959 204.796 85.6069C204.918 85.1439 205.161 84.7148 205.503 84.356C205.845 83.9972 206.276 83.7193 206.761 83.5459C206.826 83.5166 206.882 83.4721 206.924 83.4169C206.965 83.3617 206.99 83.2976 206.996 83.2309Z" fill="#263238"/>
<path d="M255.562 106.73C256.642 107.954 257.585 109.061 258.509 110.24C259.432 111.419 260.395 112.589 261.298 113.786C263.135 116.171 264.844 118.646 266.514 121.166C268.184 123.686 269.736 126.314 271.131 129.095C272.645 131.98 273.846 134.995 274.717 138.095C275.205 139.897 275.462 141.746 275.483 143.603C275.458 145.46 275.168 147.306 274.618 149.093C273.64 152.205 272.213 155.183 270.375 157.949C269.53 159.272 268.617 160.541 267.664 161.765C266.711 162.989 265.699 164.177 264.717 165.32C262.666 167.618 260.437 169.778 258.047 171.782C257.449 172.27 256.68 172.548 255.879 172.564C255.078 172.58 254.297 172.334 253.676 171.87C253.055 171.406 252.635 170.755 252.491 170.033C252.347 169.311 252.488 168.565 252.89 167.93L252.978 167.795C256.029 163.261 258.695 158.519 260.955 153.611C261.968 151.399 262.706 149.09 263.155 146.726C263.319 145.777 263.362 144.813 263.283 143.855C263.164 142.907 262.941 141.972 262.615 141.065C261.765 138.764 260.697 136.535 259.422 134.405C258.116 132.146 256.642 129.905 255.071 127.628C253.499 125.351 251.849 123.128 250.159 120.941L247.576 117.647C246.711 116.576 245.808 115.433 244.992 114.452L244.933 114.38C243.826 113.094 243.322 111.457 243.532 109.83C243.742 108.203 244.649 106.719 246.053 105.704C247.457 104.69 249.244 104.228 251.02 104.42C252.796 104.613 254.415 105.444 255.522 106.73H255.562Z" fill="#9395FF"/>
<path d="M161.967 173.123L245.541 169.658C245.805 169.642 246.069 169.675 246.319 169.755C246.568 169.835 246.797 169.961 246.993 170.124C247.188 170.287 247.345 170.484 247.455 170.704C247.566 170.924 247.626 171.162 247.634 171.404L160.062 175.004C160.05 174.766 160.09 174.527 160.18 174.303C160.269 174.079 160.407 173.873 160.584 173.698C160.762 173.523 160.975 173.382 161.213 173.283C161.45 173.184 161.707 173.13 161.967 173.123Z" fill="#9395FF"/>
<g opacity="0.6">
<path d="M161.967 173.123L245.541 169.658C245.805 169.642 246.069 169.675 246.319 169.755C246.568 169.835 246.797 169.961 246.993 170.124C247.188 170.287 247.345 170.484 247.455 170.704C247.566 170.924 247.626 171.162 247.634 171.404L160.062 175.004C160.05 174.766 160.09 174.527 160.18 174.303C160.269 174.079 160.407 173.873 160.584 173.698C160.762 173.523 160.975 173.382 161.213 173.283C161.45 173.184 161.707 173.13 161.967 173.123Z" fill="white"/>
</g>
<path d="M148.667 137.6L208.125 135.134C208.507 135.138 208.877 135.251 209.187 135.455C209.496 135.66 209.729 135.947 209.854 136.277L221.269 169.46C221.33 169.597 221.354 169.746 221.337 169.893C221.321 170.04 221.265 170.182 221.175 170.305C221.084 170.428 220.962 170.528 220.819 170.597C220.676 170.667 220.517 170.703 220.355 170.702L160.896 173.168C160.517 173.165 160.148 173.054 159.841 172.851C159.533 172.648 159.301 172.362 159.177 172.034L147.763 138.842C147.702 138.705 147.678 138.557 147.694 138.411C147.71 138.264 147.765 138.123 147.854 138.001C147.944 137.878 148.064 137.777 148.206 137.707C148.348 137.637 148.506 137.601 148.667 137.6Z" fill="#9395FF"/>
<path opacity="0.6" d="M148.667 137.6L208.125 135.134C208.507 135.138 208.877 135.251 209.187 135.455C209.496 135.66 209.729 135.947 209.854 136.277L221.269 169.46C221.33 169.597 221.354 169.746 221.337 169.893C221.321 170.04 221.265 170.182 221.175 170.305C221.084 170.428 220.962 170.528 220.819 170.597C220.676 170.667 220.517 170.703 220.355 170.702L160.896 173.168C160.517 173.165 160.148 173.054 159.841 172.851C159.533 172.648 159.301 172.362 159.177 172.034L147.763 138.842C147.702 138.705 147.678 138.557 147.694 138.411C147.71 138.264 147.765 138.123 147.854 138.001C147.944 137.878 148.064 137.777 148.206 137.707C148.348 137.637 148.506 137.601 148.667 137.6Z" fill="white"/>
<path opacity="0.5" d="M209.874 136.268L221.289 169.451C221.352 169.588 221.377 169.738 221.362 169.887C221.347 170.036 221.291 170.178 221.201 170.303C221.11 170.427 220.987 170.528 220.843 170.598C220.699 170.668 220.538 170.703 220.375 170.702L208.146 135.125C208.527 135.13 208.898 135.242 209.207 135.446C209.516 135.651 209.749 135.938 209.874 136.268Z" fill="#9395FF"/>
<path opacity="0.5" d="M223.568 170.567L245.542 169.667C245.806 169.651 246.07 169.684 246.32 169.764C246.569 169.844 246.798 169.969 246.993 170.132C247.189 170.295 247.346 170.493 247.456 170.713C247.566 170.933 247.627 171.171 247.634 171.413L221.662 172.484C221.645 172.242 221.681 172 221.768 171.772C221.856 171.543 221.992 171.333 222.17 171.154C222.348 170.975 222.564 170.831 222.804 170.73C223.044 170.629 223.304 170.574 223.568 170.567Z" fill="#9395FF"/>
<path d="M251.327 167.552L245.708 168.299L251.464 175.634C251.464 175.634 260.609 174.293 259.549 170.576L257.584 169.082C256.716 168.44 255.71 167.973 254.632 167.709C253.555 167.445 252.429 167.392 251.327 167.552Z" fill="#FF8B7B"/>
<path d="M238.832 170.495L245.875 176.12L251.464 175.634L245.708 168.299L238.832 170.495Z" fill="#FF8B7B"/>
</g>
<defs>
<clipPath id="clip0_543_621">
<rect width="491.149" height="400" fill="white" transform="translate(0.644531)"/>
</clipPath>
</defs>
</svg>
